# xmcd CD database file
#
# Track frame offsets:
#	150
#	21075
#	39325
#	53800
#	75110
#	95932
#	111727
#	132625
#	155285
#	174225
#	197157
#	217402
#	240892
#	267142
#
# Disc length: 3977 seconds
#
# Revision: 0
# Processed by: cddbd v1.5.1PL2 Copyright (c) Steve Scherf et al.
# Submitted via: CDex 1.70beta2
#
DISCID=be0f870e
DTITLE=David Benoit - 1987-1995
DYEAR=1995
DGENRE=Jazz
TTITLE0=Drive Time
TTITLE1=Every Step Of The Way
TTITLE2=Cast Your Fate To The Wind
TTITLE3=Searching For June
TTITLE4=Musicians With Attitude
TTITLE5=Linus And Lucy
TTITLE6=Kei's Song
TTITLE7=The Key To You
TTITLE8=Freedom At Midnight
TTITLE9=Still Standing
TTITLE10=Wailea
TTITLE11=Letter To Evan
TTITLE12=Urban Daydreams
TTITLE13=Mediterranean Nights
EXTD=YEAR: 1995
EXTT0=
EXTT1=
EXTT2=
EXTT3=
EXTT4=
EXTT5=
EXTT6=
EXTT7=
EXTT8=
EXTT9=
EXTT10=
EXTT11=
EXTT12=
EXTT13=
PLAYORDER=
